<?xml version="1.0" encoding="UTF-8" standalone="no"?>
<svg
   xmlns:dc="http://purl.org/dc/elements/1.1/"
   xmlns:cc="http://creativecommons.org/ns#"
   xmlns:rdf="http://www.w3.org/1999/02/22-rdf-syntax-ns#"
   xmlns:svg="http://www.w3.org/2000/svg"
   xmlns="http://www.w3.org/2000/svg"
   xmlns:sodipodi="http://sodipodi.sourceforge.net/DTD/sodipodi-0.dtd"
   xmlns:inkscape="http://www.inkscape.org/namespaces/inkscape"
   width="699.28613"
   height="294.28381"
   viewBox="0 0 699.28613 294.28381"
   version="1.1"
   id="svg2"
   inkscape:version="0.91 r13725"
   sodipodi:docname="logo_holdies_full_black.svg">
  <metadata
     id="metadata18">
    <rdf:RDF>
      <cc:Work
         rdf:about="">
        <dc:format>image/svg+xml</dc:format>
        <dc:type
           rdf:resource="http://purl.org/dc/dcmitype/StillImage" />
        <dc:title>Artboard</dc:title>
      </cc:Work>
    </rdf:RDF>
  </metadata>
  <sodipodi:namedview
     pagecolor="#ffffff"
     bordercolor="#666666"
     borderopacity="1"
     objecttolerance="10"
     gridtolerance="10"
     guidetolerance="10"
     inkscape:pageopacity="0"
     inkscape:pageshadow="2"
     inkscape:window-width="1920"
     inkscape:window-height="1016"
     id="namedview16"
     showgrid="false"
     inkscape:zoom="0.89068826"
     inkscape:cx="277.12325"
     inkscape:cy="89.652718"
     inkscape:window-x="1920"
     inkscape:window-y="27"
     inkscape:window-maximized="1"
     inkscape:current-layer="svg2"
     fit-margin-top="0"
     fit-margin-left="0"
     fit-margin-right="0"
     fit-margin-bottom="0" />
  <!-- Generator: Sketch 39.1 (31720) - http://www.bohemiancoding.com/sketch -->
  <title
     id="title4">Artboard</title>
  <desc
     id="desc6">Created with Sketch.</desc>
  <defs
     id="defs8" />
  <path
     style="fill:#000000;fill-opacity:1;fill-rule:evenodd;stroke:none;stroke-width:1"
     inkscape:connector-curvature="0"
     id="Combined-Shape"
     d="m 238.08555,206.35353 0,0.23266 404.83584,0 c 31.11777,0 56.36475,-25.23725 56.36475,-56.36896 0,-31.13856 -25.23536,-56.368958 -56.36475,-56.368958 l -404.83584,0 0,1.44772 47.20951,55.474688 z"
     sodipodi:nodetypes="ccssscccc" />
  <path
     style="fill:#000000;fill-rule:evenodd;stroke:none;stroke-width:1;fill-opacity:1"
     inkscape:connector-curvature="0"
     id="path14"
     d="m 74.903326,138.30905 0,-55.142988 22.755033,-28.836067 0.11872,85.976995 47.522091,0.63712 0.27701,-86.903162 25.40024,30.095414 -0.61295,56.752728 29.63108,-15.9789 13.94462,16.98656 -43.58516,-0.13154 -0.70227,65.02241 -22.25932,28.4507 -2.09325,-82.75068 -23.84019,12.6244 -22.911251,-12.12366 -0.9102,85.31953 -22.734203,-29.49493 0,-69.12936 -42.656571,0.12874 13.944616,-16.98656 28.711955,15.48325 z m 45.291654,154.36916 c 1.76213,2.12861 4.62801,2.14427 6.40886,0.0258 L 245.27317,151.5346 c 1.77738,-2.11439 1.77817,-5.5382 0.001,-7.64768 L 125.41725,1.5816748 c -1.77658,-2.10931099 -4.65316,-2.11227099 -6.44014,0.01136 L 1.3448559,141.3861 c -1.78021101,2.11558 -1.79500201,5.55602 -0.03273,7.6848 L 120.19498,292.67821 Z" />
  <text
     xml:space="preserve"
     style="font-style:normal;font-variant:normal;font-weight:normal;font-stretch:normal;font-size:83.53898621px;line-height:1000%;font-family:Ubuntu;-inkscape-font-specification:Ubuntu;letter-spacing:0px;word-spacing:0px;fill:#000000;fill-opacity:1;stroke:none;stroke-width:1px;stroke-linecap:butt;stroke-linejoin:miter;stroke-opacity:1"
     x="294.8074"
     y="179.45589"
     id="text4220"
     sodipodi:linespacing="1000%"><tspan
       sodipodi:role="line"
       id="tspan4222"
       x="294.8074"
       y="179.45589"
       style="font-style:normal;font-variant:normal;font-weight:normal;font-stretch:normal;font-size:83.53898621px;line-height:1000%;font-family:Lora;-inkscape-font-specification:'Lora, Normal';text-align:start;writing-mode:lr-tb;text-anchor:start;fill:#ffffff;fill-opacity:1">HOLDIES</tspan></text>
</svg>
